<svg width="1052" height="1052" version="1.1" xmlns="http://www.w3.org/2000/svg" desc="Created with imagetracer.js version 0.2.1" ><path fill="rgb(52,52,48)" stroke="rgb(52,52,48)" stroke-width="1" opacity="1" d="M 792.5 477 L 830.5 479 L 853.5 484 L 865.5 488 Q 898.3 501.2 919 526.5 Q 930.7 539.8 939 556.5 L 862.5 605 Q 853.5 588 839.5 576 Q 830.5 568.5 817.5 565 L 795.5 563 L 794.5 564 L 783.5 565 L 771.5 570 L 759 581.5 Q 753.9 588.4 752 598.5 L 752 613.5 Q 755.6 633.4 769.5 643 Q 784.7 654.3 803.5 662 L 851.5 682 L 883.5 698 Q 910.9 712.6 932 733.5 Q 953.2 754.3 963 786.5 L 968 814.5 L 968 846.5 L 963 872.5 L 953 896.5 Q 941.5 917.5 923.5 932 Q 900 951.5 866.5 961 L 837.5 967 L 813.5 968 L 812.5 969 L 796.5 969 L 795.5 968 L 771.5 967 L 748.5 963 L 712.5 951 Q 675.1 934.4 650 905.5 Q 635.6 888.9 625 868.5 L 689.5 830 L 705.5 822 Q 715.4 838.6 728.5 852 Q 742.9 866.6 763.5 875 L 789.5 881 L 814.5 881 L 836.5 876 Q 851.7 870.2 861 858.5 L 868 845.5 L 870 831.5 L 869 830.5 L 868 818.5 L 863 807.5 L 851.5 795 Q 835.8 783.2 816.5 775 L 768.5 755 L 739.5 741 Q 711.4 726.1 690 704.5 Q 669.7 683.8 660 652.5 L 655 625.5 L 655 592.5 L 659 571.5 L 670 544.5 Q 680.6 525.6 696.5 512 Q 713.5 497 736.5 488 L 751.5 483 L 770.5 479 L 791.5 478 L 792.5 477 Z " /><path fill="rgb(52,52,48)" stroke="rgb(52,52,48)" stroke-width="1" opacity="1" d="M 473 483 L 570.5 483 L 571 483.5 L 571 840.5 L 570 841.5 L 570 849.5 L 567 866.5 L 559 891.5 Q 548.2 916.7 529.5 934 Q 510 952 481.5 961 L 446.5 968 L 416.5 969 L 415.5 968 L 402.5 968 L 401.5 967 L 383.5 965 Q 363.8 960.7 347.5 953 Q 320.1 939.4 301 917.5 Q 285.9 900.6 276 878.5 L 357 830 Q 366.5 851.3 382.5 867 L 398.5 877 L 408.5 880 L 418.5 880 L 419.5 881 L 420.5 880 L 433.5 880 L 442.5 878 Q 454.1 874.1 461 865.5 L 469 850.5 L 472 836.5 L 472 827.5 L 473 826.5 L 473 483 Z " /><path fill="rgb(240,219,79)" stroke="rgb(240,219,79)" stroke-width="1" opacity="1" d="M 0 0 L 1052 0 L 1052 1052 L 0 1052 L 0 0 Z M 793 477 L 792 478 L 771 479 L 752 483 L 737 488 Q 713 497 697 512 Q 681 526 670 545 L 659 572 L 655 593 L 655 626 L 660 653 Q 670 684 690 705 Q 711 726 740 741 L 769 755 L 817 775 Q 836 783 852 795 L 863 808 L 868 819 L 869 831 L 870 832 L 868 846 L 861 859 Q 852 870 837 876 L 815 881 L 790 881 L 764 875 Q 743 867 729 852 Q 715 839 706 822 L 690 830 L 625 869 Q 636 889 650 906 Q 675 934 713 951 L 749 963 L 772 967 L 796 968 L 797 969 L 813 969 L 814 968 L 838 967 L 867 961 Q 900 952 924 932 Q 942 918 953 897 L 963 873 L 968 847 L 968 815 L 963 787 Q 953 754 932 734 Q 911 713 884 698 L 852 682 L 804 662 Q 785 654 770 643 Q 756 633 752 614 L 752 599 Q 754 588 759 582 L 772 570 L 784 565 L 795 564 L 796 563 L 818 565 Q 831 568 840 576 Q 854 588 863 605 L 939 557 Q 931 540 919 527 Q 898 501 866 488 L 854 484 L 831 479 L 793 477 Z M 473 483 L 473 827 L 472 828 L 472 837 L 469 851 L 461 866 Q 454 874 443 878 L 434 880 L 421 880 L 420 881 L 419 880 L 409 880 L 399 877 L 383 867 Q 367 851 357 830 L 276 879 Q 286 901 301 918 Q 320 939 348 953 Q 364 961 384 965 L 402 967 L 403 968 L 416 968 L 417 969 L 447 968 L 482 961 Q 510 952 530 934 Q 548 917 559 892 L 567 867 L 570 850 L 570 842 L 571 841 L 571 484 L 571 483 L 473 483 Z " /></svg>